<svg width="32" height="32" viewBox="0 0 32 32" fill="none" xmlns="http://www.w3.org/2000/svg">
<rect width="32" height="32" rx="6" fill="url(#paint0_linear_5345_34)"/>
<path d="M16 7.00001C14.8179 6.99845 13.6471 7.23054 12.5549 7.68295C11.4628 8.13535 10.4708 8.79915 9.636 9.63618C6.12133 13.1511 6.12133 18.8501 9.636 22.3638C11.3945 24.1213 13.6967 25 16 25C18.3033 25 20.6067 24.1213 22.364 22.3638C25.8787 18.8489 25.8787 13.1499 22.364 9.63618C21.5292 8.79915 20.5372 8.13535 19.4451 7.68295C18.3529 7.23054 17.1821 6.99845 16 7.00001ZM21.5119 21.5116C20.7897 22.2377 19.9307 22.8134 18.9846 23.2052C18.0385 23.5971 17.024 23.7974 16 23.7946C14.976 23.7972 13.9616 23.5968 13.0156 23.2049C12.0695 22.813 11.2105 22.2375 10.4881 21.5116C9.01647 20.0398 8.2053 18.0823 8.2053 15.9994C8.2053 13.9165 9.01647 11.9602 10.4881 10.4872C11.2103 9.76109 12.0693 9.18544 13.0154 8.79357C13.9615 8.40169 14.976 8.20137 16 8.20419C18.0816 8.20419 20.039 9.01541 21.5119 10.4872C22.9847 11.959 23.7947 13.9177 23.7947 15.9994C23.7947 18.0811 22.9835 20.0398 21.5119 21.5116ZM19.5761 15.3569H16.5629V11.1297C16.5629 10.9698 16.4994 10.8165 16.3864 10.7035C16.2733 10.5905 16.1201 10.527 15.9602 10.527C15.8004 10.527 15.6471 10.5905 15.5341 10.7035C15.4211 10.8165 15.3576 10.9698 15.3576 11.1297V15.9596C15.3576 16.1195 15.4211 16.2728 15.5341 16.3858C15.6471 16.4988 15.8004 16.5623 15.9602 16.5623H19.5761C19.736 16.5623 19.8893 16.4988 20.0023 16.3858C20.1153 16.2728 20.1788 16.1195 20.1788 15.9596C20.1788 15.7998 20.1153 15.6465 20.0023 15.5335C19.8893 15.4204 19.736 15.3569 19.5761 15.3569Z" fill="white"/>
<defs>
<linearGradient id="paint0_linear_5345_34" x1="1.5" y1="3" x2="32" y2="32" gradientUnits="userSpaceOnUse">
<stop stop-color="#F76C1E"/>
<stop offset="0.427885" stop-color="#F45F2A"/>
<stop offset="1" stop-color="#F04940"/>
</linearGradient>
</defs>
</svg>
