<svg width="81" height="84" viewBox="0 0 81 84" fill="none" xmlns="http://www.w3.org/2000/svg">
<path fill-rule="evenodd" clip-rule="evenodd" d="M51.1666 28.8864C50.0641 34.4358 44.9833 39.2134 38.1016 38.019C32.5155 37.0543 27.6643 31.6335 28.9598 24.7611C29.9797 19.3862 35.2259 14.5902 41.9881 15.7663C47.4272 16.7034 52.5172 22.1242 51.1666 28.8864ZM25.0642 15.2426C25.4777 16.2532 26.9293 16.7218 26.9018 17.8611C26.9018 18.3021 25.7717 20.2131 25.4685 20.9482C25.1285 21.7751 24.761 23.8423 24.1638 24.1823C22.4365 25.1837 20.1304 21.8945 21.0767 29.2906C22.2987 29.5938 24.0076 29.0518 24.5589 30.044C24.8621 30.6045 25.2571 32.4053 25.6706 33.2965C25.9922 34.004 27.012 35.5475 26.8926 36.1815C26.718 37.1186 25.2847 37.3207 25.0642 38.6805C25.0826 38.9102 27.793 41.9973 28.5096 41.8595C29.4743 41.3634 29.7591 40.0679 30.9627 40.0403C31.5783 40.0311 33.0943 41.0785 33.8569 41.3817C34.4265 41.6114 36.6867 42.2454 36.9899 42.4475C37.8995 43.0631 37.3023 44.7444 37.7157 45.8929C39.4247 46.1226 39.5257 46.0307 41.2806 46.0215C43.6418 46.0215 42.0616 44.3402 42.7231 42.9161C43.063 42.1903 44.8363 41.933 45.8745 41.5287C46.5911 41.2531 48.6675 40.0863 48.9983 40.0495C50.2662 39.9393 50.6154 41.4736 51.773 41.8871C52.3151 41.6941 54.5385 39.5258 54.8325 39.094C55.834 37.6699 52.6918 37.1829 53.289 35.4832C53.5646 34.6839 54.4466 33.7283 55.1541 31.3855C56.1188 28.1697 56.321 30.0073 59.0038 29.2815C59.3437 27.5174 59.1875 27.4715 59.1783 25.5604C59.1783 23.0889 56.5139 25.294 55.6043 23.8331C55.4757 23.6218 54.8877 21.3892 54.1435 19.8824C53.2614 18.0908 52.554 17.8427 54.1067 16.3451C55.7237 14.7924 54.9979 14.7097 53.6473 13.3683C52.4253 12.1463 52.0762 11.1356 50.5143 12.7527C48.6124 14.728 49.2923 13.4877 45.3508 12.0452C44.8454 11.8615 43.6143 11.6134 43.21 11.3929C41.593 10.5201 43.8348 7.7821 41.4552 7.7821H38.6621C36.0619 7.7821 38.9561 10.8508 36.3927 11.5766C34.3898 12.1371 33.5996 12.4679 31.9366 13.4142C29.6856 14.7005 29.7591 11.5399 28.0502 11.9625C27.793 12.0268 25.2204 14.186 25.0642 15.2426Z" fill="#FFB703"/>
<path fill-rule="evenodd" clip-rule="evenodd" d="M35.5566 69.781L37.3482 75.7163C36.8797 75.992 20.7735 81.1095 18.7522 81.4219L16.9514 75.4131L35.5566 69.781ZM17.2362 56.2567C15.5549 55.3011 13.8276 54.3364 12.1095 53.3258C11.0712 52.7194 10.2352 52.5632 10.0238 51.3963C9.80334 50.1192 10.474 49.1086 11.5582 48.9983C12.6424 48.8881 15.9683 51.0839 16.9422 51.6444C19.7812 53.2798 24.6599 55.9167 27.1498 57.5338C28.6107 58.4893 29.2722 60.5473 30.1083 62.6238C30.6871 64.0571 32.1296 67.0431 32.396 68.3753L19.9374 72.1239C19.4597 71.2511 19.818 70.3874 19.0922 69.6157C16.7309 67.1166 8.03929 61.0435 7.0562 58.7373C6.48656 57.4051 2.92171 39.1766 2.50826 37.2196C1.85593 34.0774 4.24474 33.811 5.2554 34.4633C6.35793 35.1616 6.64275 37.6239 7.03782 39.1766L9.02238 47.0046C9.19695 47.8774 9.25207 47.5099 8.76512 48.1347C7.17564 50.1652 7.54315 52.6091 8.99481 53.9965C9.57364 54.5569 12.0727 55.88 13.0466 56.422C14.3972 57.1662 15.8121 58.0207 17.1535 58.7833C18.1274 59.3529 20.6173 61.2089 21.3799 60.1063C21.7199 58.5168 20.9021 58.3698 19.7812 57.7267C18.9452 57.2489 18.1366 56.762 17.2362 56.2567ZM0 35.8782C0 36.8154 0.349135 38.1292 0.53289 39.0204C0.735021 39.9759 0.992278 41.106 1.18522 42.0524C1.82836 45.2681 4.1988 58.2504 5.30134 60.3176C6.10986 61.8244 9.37151 64.4613 10.9426 65.6925C11.696 66.2805 12.284 66.8961 13.0191 67.4657C13.7633 68.0537 14.3145 68.5774 15.022 69.1379C16.685 70.4885 17.374 70.7733 17.5394 72.2525C17.6772 73.4653 17.3097 72.6844 15.2792 73.5572C13.4876 74.3198 14.7096 75.8358 15.8029 79.5476C17.42 85.0419 16.8871 84.3252 20.7827 83.2503C25.1377 82.0375 30.2185 80.301 34.7389 79.0147C35.6209 78.7667 39.8841 77.7652 39.8841 76.8097C39.8841 75.6428 38.8642 72.8681 38.5059 71.7196C38.1843 70.709 37.5779 68.0354 37.0726 67.5484C36.2273 66.7215 35.8231 67.5392 34.8124 67.5392C34.105 67.5392 31.514 58.6638 29.5203 56.5598C28.4729 55.4481 16.7309 48.8329 13.9378 47.3078C12.9364 46.7565 12.4035 46.7289 11.1907 46.7289C11.1723 45.9021 9.40826 39.1399 9.0775 38.0006C8.5538 36.2641 8.19548 31.8632 4.37337 31.8632C3.04115 31.8632 2.06725 32.3409 1.3506 33.03C0.735021 33.6272 0 34.7665 0 35.8782Z" fill="#1664B2"/>
<path fill-rule="evenodd" clip-rule="evenodd" d="M44.5422 69.8087L63.1566 75.3949L61.365 81.4221C60.6851 81.2934 43.8991 76.3412 42.7506 75.7256L44.5422 69.8087ZM60.1706 72.1149C60.0052 72.0965 48.6032 68.89 47.712 68.2468C48.4378 65.9591 49.816 63.0465 50.7715 60.768C52.1956 57.3869 52.701 57.6533 56.1648 55.6688L66.1518 49.9081C70.4885 47.3722 70.2771 51.2403 69.928 51.9385C69.6248 52.5541 69.0919 52.6828 68.4304 53.0686C67.1717 53.8037 58.8476 58.324 58.6454 59.0315C58.4066 59.84 58.9303 60.4648 59.6469 60.474C60.1614 60.4832 61.0067 59.9227 61.411 59.6838C63.3312 58.5262 70.7457 54.5111 71.3889 53.7485C72.1423 52.8481 72.6108 51.2127 72.2158 49.7335C71.6002 47.4365 70.5803 48.8606 71.3429 46.0033C72.0963 43.2194 72.767 40.4079 73.4561 37.6332C73.8328 36.1264 73.9798 34.6288 75.3304 34.2429C76.9199 33.7744 77.9581 35.0882 77.71 36.6317C77.0026 41.1246 75.1099 49.2098 74.1176 54.1804C73.8696 55.3931 73.5664 57.4053 73.1529 58.4802C72.5649 60.033 71.6461 60.5567 70.663 61.4203L62.146 68.6419C59.6653 70.6356 61.2731 70.0384 60.1706 72.1149ZM68.9174 46.7291C66.749 46.7291 66.3999 47.1242 64.2684 48.3737C63.0739 49.0812 62.0082 49.66 60.8413 50.3674C58.5352 51.7548 56.2934 52.94 53.9505 54.3274C50.9461 56.1006 50.0549 56.3946 48.6767 59.8951C44.726 69.9282 45.7918 67.1902 43.7337 67.1902C42.6036 67.1902 42.0524 70.0109 41.6297 71.5636C39.9392 77.747 38.4508 77.0671 45.2681 78.9505C47.271 79.5018 60.9975 83.9854 62.2746 83.9854C63.322 83.9854 63.7447 81.2567 64.2592 79.6764C64.4797 78.9965 65.7751 75.0641 65.7751 74.715C65.7751 73.3368 63.4506 73.2725 62.4492 72.7948C63.1291 69.873 62.7432 71.4074 65.2882 68.991L68.9725 65.8488C70.2496 64.7738 71.3705 63.7724 72.6935 62.7433C73.9339 61.7786 75.0088 60.4372 75.4958 58.7283C75.9827 57.0469 76.2859 54.9613 76.6259 53.2156L78.9596 41.9055C79.1617 40.904 79.2903 40.1139 79.52 39.14C79.6762 38.4693 80.1172 36.7971 80.1172 36.2367C80.1172 32.0562 74.8526 30.136 72.3076 33.8479C71.7196 34.7115 68.9357 45.9206 68.9174 46.7291Z" fill="#1664B2"/>
<path fill-rule="evenodd" clip-rule="evenodd" d="M60.1706 72.1148C61.2732 70.0384 59.6653 70.6356 62.146 68.6418L70.6631 61.4202C71.6461 60.5566 72.5649 60.0329 73.1529 58.4802C73.5664 57.4052 73.8696 55.3931 74.1176 54.1803C75.1099 49.2097 77.0026 41.1245 77.7101 36.6317C77.9581 35.0881 76.9199 33.7743 75.3304 34.2429C73.9798 34.6287 73.8328 36.1264 73.4561 37.6331C72.767 40.4078 72.0963 43.2193 71.3429 46.0032C70.5804 48.8606 71.6002 47.4365 72.2158 49.7334C72.6109 51.2126 72.1423 52.8481 71.3889 53.7485C70.7457 54.5111 63.3312 58.5261 61.411 59.6838C61.0067 59.9226 60.1614 60.4831 59.6469 60.4739C58.9303 60.4647 58.4066 59.84 58.6455 59.0314C58.8476 58.324 67.1717 53.8036 68.4304 53.0686C69.0919 52.6827 69.6248 52.5541 69.928 51.9385C70.2772 51.2402 70.4885 47.3722 66.1519 49.908L56.1648 55.6687C52.701 57.6533 52.1957 57.3868 50.7716 60.7679C49.816 63.0465 48.4379 65.959 47.712 68.2467C48.6032 68.8899 60.0053 72.0964 60.1706 72.1148Z" fill="#FEFEFF"/>
<path fill-rule="evenodd" clip-rule="evenodd" d="M19.9374 72.124L32.396 68.3754C32.1296 67.0431 30.6871 64.0571 30.1083 62.6238C29.2722 60.5474 28.6107 58.4893 27.1498 57.5338C24.6599 55.9168 19.7812 53.2799 16.9422 51.6444C15.9683 51.084 12.6423 48.8881 11.5582 48.9984C10.474 49.1086 9.80333 50.1193 10.0238 51.3964C10.2352 52.5632 11.0712 52.7194 12.1095 53.3258C13.8276 54.3365 15.5549 55.3012 17.2362 56.2567C18.1366 56.762 18.9451 57.249 19.7812 57.7267C20.9021 58.3699 21.7198 58.5169 21.3799 60.1064C20.6173 61.2089 18.1274 59.353 17.1535 58.7833C15.8121 58.0208 14.3972 57.1663 13.0466 56.4221C12.0727 55.88 9.57364 54.557 8.99481 53.9965C7.54314 52.6092 7.17563 50.1652 8.76511 48.1347C9.25206 47.51 9.19694 47.8775 9.02237 47.0046L7.03781 39.1767C6.64274 37.6239 6.35792 35.1616 5.25539 34.4633C4.24474 33.811 1.85592 34.0775 2.50825 37.2197C2.9217 39.1767 6.48655 57.4052 7.05619 58.7374C8.03928 61.0435 16.7309 67.1166 19.0921 69.6157C19.818 70.3875 19.4597 71.2511 19.9374 72.124Z" fill="#FEFEFF"/>
<path fill-rule="evenodd" clip-rule="evenodd" d="M25.0642 15.2426C25.2204 14.186 27.7929 12.0269 28.0502 11.9625C29.7591 11.5399 29.6856 14.7005 31.9366 13.4142C33.5996 12.4679 34.3897 12.1371 36.3927 11.5767C38.9561 10.8508 36.0619 7.78211 38.6621 7.78211H41.4551C43.8348 7.78211 41.5929 10.5201 43.21 11.3929C43.6143 11.6134 44.8454 11.8615 45.3507 12.0452C49.2923 13.4877 48.6124 14.7281 50.5143 12.7527C52.0762 11.1356 52.4253 12.1463 53.6473 13.3683C54.9979 14.7097 55.7237 14.7924 54.1067 16.3451C52.5539 17.8427 53.2614 18.0908 54.1434 19.8824C54.8876 21.3892 55.4756 23.6218 55.6043 23.8331C56.5139 25.294 59.1783 23.0889 59.1783 25.5604C59.1875 27.4715 59.3437 27.5174 59.0037 29.2815C56.3209 30.0073 56.1188 28.1697 55.1541 31.3855C54.4466 33.7283 53.5646 34.6839 53.289 35.4832C52.6918 37.1829 55.834 37.6699 54.8325 39.094C54.5385 39.5258 52.3151 41.6941 51.773 41.8871C50.6153 41.4736 50.2662 39.9393 48.9983 40.0495C48.6675 40.0863 46.5911 41.2531 45.8744 41.5287C44.8362 41.933 43.063 42.1903 42.723 42.9161C42.0615 44.3402 43.6418 46.0216 41.2806 46.0216C39.5257 46.0307 39.4246 46.1226 37.7157 45.8929C37.3023 44.7445 37.8995 43.0631 36.9899 42.4475C36.6867 42.2454 34.4265 41.6114 33.8569 41.3817C33.0943 41.0785 31.5783 40.0311 30.9627 40.0403C29.7591 40.0679 29.4743 41.3634 28.5096 41.8595C27.7929 41.9973 25.0825 38.9102 25.0642 38.6805C25.2847 37.3207 26.718 37.1186 26.8925 36.1815C27.012 35.5475 25.9921 34.004 25.6706 33.2965C25.2571 32.4053 24.862 30.6045 24.5588 30.044C24.0076 29.0518 22.2987 29.5938 21.0767 29.2907C20.1303 21.8945 22.4365 25.1837 24.1638 24.1823C24.761 23.8423 25.1285 21.7751 25.4684 20.9482C25.7716 20.2131 26.9017 18.3021 26.9017 17.8611C26.9293 16.7218 25.4776 16.2532 25.0642 15.2426ZM35.1615 9.64723C33.9579 9.74829 32.0469 10.7314 31.1373 11.2183C30.2828 9.94124 29.3273 9.64723 27.9859 9.64723C26.672 9.64723 22.7397 13.2948 22.7397 15.068C22.7397 16.7494 23.7044 17.1261 24.3108 18.0448C23.8881 18.8442 22.8224 21.0492 22.7397 22.0599C21.3523 22.0599 20.8286 22.0323 19.965 22.6112C18.2193 23.778 18.7154 26.1025 18.7154 28.8864C18.7154 29.8787 19.2299 30.6413 19.8272 31.1006C20.6541 31.7254 21.3523 31.6887 22.7397 31.6887C22.8315 32.782 23.8606 34.8584 24.3108 35.7037C23.7779 36.5122 22.7397 37.1737 22.7397 38.506C22.7397 40.463 24.9264 41.9881 26.0197 43.0998C26.8098 43.8992 27.4254 44.2575 28.5739 44.1564C30.1909 44.0094 30.1818 43.3387 31.1373 42.7048L35.1615 44.2759C35.1615 48.9708 38.1016 48.3001 41.8043 48.3001C43.8164 48.3001 44.7076 46.8852 44.9189 45.112C45.02 44.184 44.7168 44.3953 45.4426 44.0646L48.9799 42.7048C50.4775 43.7062 49.5771 44.1013 52.3059 44.1013C53.4084 44.1013 55.7237 41.5747 56.5506 40.6559C58.6362 38.313 56.229 36.3468 55.7972 35.7037C56.2474 34.8584 57.2856 32.782 57.3775 31.6887C58.8567 31.6887 59.2426 31.753 60.1706 31.165C61.8887 30.0808 61.4017 27.4255 61.4017 24.6876C61.4017 23.7412 60.731 23.0705 60.1338 22.6295C59.2886 21.9956 58.7465 22.0599 57.3775 22.0599C57.1662 21.1871 56.9733 20.7185 56.6792 19.9651C56.4404 19.3863 55.9167 18.4583 55.7972 18.0448C57.0927 16.1062 58.9394 15.4906 55.3195 11.8707C53.73 10.2812 53.4635 9.64723 51.4238 9.64723C50.4499 9.64723 49.3842 10.6028 48.9799 11.2183C48.0611 10.7314 46.1593 9.74829 44.9557 9.64723C44.9557 4.85122 41.887 5.44842 38.6621 5.44842C37.3758 5.44842 36.5581 5.82512 35.9517 6.58771C35.281 7.4146 35.1615 8.23231 35.1615 9.64723Z" fill="#FFB703"/>
<path fill-rule="evenodd" clip-rule="evenodd" d="M40.7569 51.4515C32.1204 51.4515 25.248 48.1071 20.1947 41.4093C19.4781 40.4629 18.8533 39.489 18.3112 38.3865L16.7952 35.0054C17.8702 35.2627 18.4307 35.8782 19.4137 35.8782C20.1304 35.8782 20.4703 34.9319 20.3325 34.445C20.1028 33.6732 19.3402 33.5629 18.7155 33.2597C18.0907 32.9565 15.6376 31.6427 14.9852 31.5876C14.3053 31.5232 13.8827 32.1848 13.6438 32.7268L11.8706 36.5857C11.3469 38.1384 13.7908 39.342 14.5167 36.2366H14.8658C15.8856 40.5824 20.2498 45.6908 23.9617 48.4747L27.1498 50.5419C29.1068 51.7271 32.7452 52.9032 34.9962 53.3625C42.0064 54.7775 49.3658 53.0961 55.1357 49.2097C61.4293 44.9741 65.5271 38.3589 66.6756 30.8434C66.8869 29.4744 66.9236 28.7118 65.4168 28.7118C64.0754 28.7118 64.4521 32.929 62.3298 37.3391C61.0894 39.9392 59.3345 42.4107 57.4143 44.3218C53.9321 47.8131 47.6569 51.4515 40.7569 51.4515Z" fill="#FFB703"/>
<path fill-rule="evenodd" clip-rule="evenodd" d="M63.1474 18.743C62.3757 18.5593 61.2272 17.6772 60.4646 17.9621C59.8674 18.1826 59.4907 18.9084 59.8582 19.5699C60.0879 19.9834 60.0052 19.8547 60.4003 20.0936C61.0894 20.5071 64.8747 22.3814 65.5087 22.17C66.2805 21.9128 67.8975 18.1091 68.164 17.4384C68.5499 16.4828 68.0261 15.3619 66.8961 15.6467C65.8762 15.904 66.0232 17.1168 65.2423 17.6864C65.0953 15.8581 62.4124 11.7511 61.0067 10.033C59.3621 8.02091 57.7726 6.51411 55.6962 5.0257C48.153 -0.431829 36.0803 -2.14994 26.865 3.4454C25.4777 4.28149 24.5129 4.84194 23.3002 5.83422C18.6052 9.68389 15.4814 14.3788 13.9562 20.2774C13.7541 21.0583 13.5979 21.8025 13.4601 22.7489C13.2487 24.2005 13.0926 23.9525 13.8184 25.0366H15.0404C16.0602 23.5298 15.5457 23.4563 16.2348 20.8011C16.6207 19.2943 17.0433 18.0999 17.6129 16.7677C18.7063 14.241 20.259 12.1921 21.9128 10.2168C25.101 6.41305 31.0271 3.42703 36.1538 2.59094C43.1457 1.45166 49.4301 3.59241 53.6289 6.39467C55.8432 7.86471 57.745 9.51851 59.2978 11.5674C60.5381 13.1844 62.9913 16.8687 63.1474 18.743Z" fill="#FFB703"/>
<path fill-rule="evenodd" clip-rule="evenodd" d="M34.0682 33.6089C34.7297 32.8004 35.7312 32.6809 36.7327 32.6809H43.4214C44.6433 32.6809 45.4518 32.8739 46.0491 33.6089C43.4765 36.7695 36.3835 36.5673 34.0682 33.6089ZM47.5834 31.8173C46.6003 31.3119 46.1501 30.7055 44.5698 30.5126L35.7036 30.485C34.1693 30.6412 33.4802 31.3119 32.5339 31.8265C30.8249 30.2737 30.3839 25.3491 32.1664 22.3906C37.2104 14.0481 49.3475 18.0081 49.1086 27.1315C49.0718 28.7026 48.5114 30.9261 47.5834 31.8173ZM51.1666 28.8864C52.5172 22.1242 47.4272 16.7034 41.9881 15.7663C35.2259 14.5902 29.9797 19.3862 28.9598 24.7611C27.6644 31.6335 32.5155 37.0543 38.1016 38.019C44.9833 39.2134 50.0641 34.4358 51.1666 28.8864Z" fill="white"/>
<path fill-rule="evenodd" clip-rule="evenodd" d="M39.5716 20.6082C41.9696 20.2683 43.9818 22.1334 44.2941 24.1639C44.6984 26.7824 42.8517 28.8313 40.665 29.1253C35.0605 29.8971 33.7282 21.4351 39.5716 20.6082ZM47.5834 31.8173C48.5113 30.9261 49.0718 28.7027 49.1085 27.1315C49.3474 18.0081 37.2104 14.0482 32.1663 22.3907C30.3839 25.3491 30.8249 30.2738 32.5338 31.8265C33.4802 31.312 34.1692 30.6413 35.7036 30.4851L44.5698 30.5126C46.1501 30.7056 46.6003 31.312 47.5834 31.8173Z" fill="#FEFEFF"/>
<path fill-rule="evenodd" clip-rule="evenodd" d="M39.5717 22.8867C42.2453 22.1885 43.1181 26.2035 40.6466 26.8558C37.973 27.5725 36.7878 23.6217 39.5717 22.8867ZM39.5717 20.6082C33.7282 21.4351 35.0605 29.897 40.665 29.1252C42.8517 28.8312 44.6984 26.7823 44.2942 24.1638C43.9818 22.1333 41.9697 20.2682 39.5717 20.6082Z" fill="#FFB703"/>
<path fill-rule="evenodd" clip-rule="evenodd" d="M34.0682 33.6089C36.3836 36.5673 43.4765 36.7695 46.0491 33.6089C45.4519 32.8739 44.6433 32.6809 43.4214 32.6809H36.7327C35.7312 32.6809 34.7298 32.8003 34.0682 33.6089Z" fill="#FFB703"/>
<path fill-rule="evenodd" clip-rule="evenodd" d="M39.5717 22.8868C36.7878 23.6218 37.973 27.5725 40.6467 26.8559C43.1182 26.2035 42.2453 22.1885 39.5717 22.8868Z" fill="#FFB703"/>
</svg>
