<svg width="66" height="84" viewBox="0 0 66 84" fill="none" xmlns="http://www.w3.org/2000/svg">
<path fill-rule="evenodd" clip-rule="evenodd" d="M33.0659 67.277C31.98 67.277 30.4597 66.544 29.8625 65.9467C27.0663 63.1505 29.1295 58.2096 33.0659 58.2096C36.758 58.2096 39.1741 62.9605 36.215 65.8924C35.5906 66.544 34.2604 67.277 33.0659 67.277ZM6.10822 48.5722V77.2945H60.0236V48.5722C60.0236 46.699 58.5576 45.233 56.6844 45.233H9.44738C7.57419 45.233 6.10822 46.699 6.10822 48.5722Z" fill="#1664B2"/>
<path fill-rule="evenodd" clip-rule="evenodd" d="M15.1484 19.8499C20.8766 19.3613 21.4467 19.3884 21.4467 23.7864C26.2519 23.7864 30.9213 23.9493 34.5048 20.4743C36.6494 18.4111 38.9027 15.2891 38.957 11.9771C40.07 11.9771 40.8845 12.4658 41.536 12.9544C43.5721 14.4204 45.4181 17.0809 45.6625 19.8499L49.1917 19.6328C50.1961 19.6328 50.0875 19.8228 50.9834 19.8499C50.9834 11.2984 47.78 4.59293 40.6944 1.57954C34.7762 -0.945202 27.4735 -0.510839 22.2883 3.37128C16.8859 7.38915 15.1484 12.9273 15.1484 19.8499Z" fill="#FFB703"/>
<path fill-rule="evenodd" clip-rule="evenodd" d="M0 81.6381C0 82.8598 0.760136 84 1.98178 84H64.15C66.5933 84 66.5933 79.4663 64.15 79.4663H1.98178C1.33024 79.4663 0.95017 79.7378 0.624397 80.0907C0.325773 80.4165 0 81.1223 0 81.6381Z" fill="#1664B2"/>
<path fill-rule="evenodd" clip-rule="evenodd" d="M46.6398 34.2111C46.6398 35.0255 47.3185 34.8083 49.0017 34.8083C49.0017 36.6544 49.436 40.1021 45.8525 40.1021H40.7487C39.4728 40.1021 41.4003 39.3148 37.3824 39.3148C35.0477 39.3148 34.1519 43.2513 38.3869 43.2513C40.613 43.2513 38.414 42.464 42.8934 42.464C46.4226 42.464 49.1374 42.5726 50.7934 39.342C51.5535 37.8217 51.3635 36.6001 51.3635 34.4011C54.8384 33.5867 54.3226 29.3245 54.3226 26.5283C54.3226 24.0578 52.6123 21.8046 50.1962 21.8046H46.6398V34.2111Z" fill="#FFB703"/>
<path fill-rule="evenodd" clip-rule="evenodd" d="M11.8092 26.3382V30.4647C11.8092 32.7179 13.8996 34.8083 16.1257 34.8083H19.2748V21.8046H15.9357C13.6552 21.8046 11.8092 23.9764 11.8092 26.3382Z" fill="#FFB703"/>
<path fill-rule="evenodd" clip-rule="evenodd" d="M16.1257 36.763C15.8271 38.1203 15.3656 38.5818 14.4154 39.3691C13.5739 40.0207 12.4879 40.5093 11.022 40.5093C11.022 41.9753 11.0763 42.1382 11.8093 43.2513H28.1522C27.9621 42.7354 27.745 42.7626 27.2563 42.3825C25.9532 41.4324 25.546 40.9437 24.4601 39.8578C23.6457 39.0705 21.7725 36.7087 21.6367 35.3784H21.2567C20.768 37.2516 18.4333 36.763 16.1257 36.763Z" fill="#FFB703"/>
<path fill-rule="evenodd" clip-rule="evenodd" d="M0.977322 77.5116C2.06323 77.403 1.52028 77.2944 3.33917 77.2944C3.33917 72.4893 3.04055 70.3175 4.01787 65.7838C4.39793 64.0464 4.12646 61.8474 4.12646 60.0013C3.20343 60.3271 2.68763 62.4718 2.36186 63.3405C1.90034 64.6165 1.60172 65.9195 1.35739 67.4398C0.841583 70.3175 0.977322 74.0639 0.977322 77.5116Z" fill="#1664B2"/>
<path fill-rule="evenodd" clip-rule="evenodd" d="M62.7926 71.0233V77.2944C64.6115 77.2944 64.0686 77.403 65.1545 77.5116C65.1545 71.1591 65.3988 67.1683 63.0913 61.6574C62.5483 60.3 62.5755 60.1914 62.0053 60.0013C62.0053 61.8745 61.761 64.0192 62.1139 65.7838C62.4397 67.6027 62.7926 68.9058 62.7926 71.0233Z" fill="#1664B2"/>
<path fill-rule="evenodd" clip-rule="evenodd" d="M30.7041 62.5534C30.7041 66.0011 35.4278 66.0011 35.4278 62.5534C35.4278 59.6486 30.7041 59.6486 30.7041 62.5534Z" fill="#1664B2"/>
<path fill-rule="evenodd" clip-rule="evenodd" d="M28.3422 37.9575C30.1883 38.9077 30.9213 39.7221 33.256 39.7221C34.0975 39.7221 34.4505 37.3602 37.1924 37.3602C37.0023 36.4644 36.8123 36.7087 36.5951 35.9757C32.6859 38.0661 33.446 38.0661 29.5096 35.9757C29.3195 36.6815 28.9666 36.763 28.3422 37.9575Z" fill="#FFB703"/>
<path fill-rule="evenodd" clip-rule="evenodd" d="M49.4089 43.2512H54.3226C55.0556 42.1382 55.1099 41.9753 55.1099 40.5093C53.101 40.5093 53.3453 39.9664 52.3408 39.722C50.6848 42.8712 49.7889 42.2196 49.4089 43.2512Z" fill="#FFB703"/>
<path fill-rule="evenodd" clip-rule="evenodd" d="M38.5769 29.4874C40.6402 29.4874 40.9388 26.0125 38.5769 26.0125C36.2151 26.0125 36.4594 29.4874 38.5769 29.4874Z" fill="#FFB703"/>
<path fill-rule="evenodd" clip-rule="evenodd" d="M42.7034 38.5276C45.3096 38.5276 47.4271 39.152 47.6171 36.763C46.7484 36.763 46.1783 36.8173 45.581 36.4644C44.7666 35.9757 45.1195 35.7314 44.468 34.9984C44.0879 36.6273 43.3821 37.2517 42.7034 38.5276Z" fill="#FFB703"/>
<path fill-rule="evenodd" clip-rule="evenodd" d="M25.7903 27.7228C25.7903 29.4874 29.1295 30.6276 29.1295 27.3155C29.1295 25.6867 25.7903 25.4966 25.7903 27.7228Z" fill="#FFB703"/>
</svg>
