<svg width="84" height="84" viewBox="0 0 84 84" fill="none" xmlns="http://www.w3.org/2000/svg">
<path fill-rule="evenodd" clip-rule="evenodd" d="M42.8312 77.9371C44.6892 78.4261 45.5693 81.1641 42.929 81.1641C42.0489 81.1641 41.7555 80.4796 41.1688 80.0885C41.6577 79.3062 42.5378 78.915 42.8312 77.9371ZM44.0047 84H42.44C41.3644 83.8044 40.4843 83.2177 39.8976 82.6309C38.9197 81.6531 38.9197 82.2398 37.7462 82.5332C35.3015 83.2177 32.5634 81.3597 32.4657 78.5238C30.2165 78.5238 28.5541 76.5681 28.3586 74.4167C26.2072 74.4167 24.447 72.7543 24.447 70.5052C22.2957 70.0163 20.3399 69.1362 20.3399 66.3003C19.7532 66.1048 17.1129 64.4424 16.2328 63.9534C16.135 64.3446 16.0373 64.8335 15.9395 65.1269C13.0058 65.1269 14.1793 65.3224 11.539 64.4424L3.91153 61.8999C2.93364 61.6065 0.880093 60.7264 0 60.7264V32.4656C1.36903 32.4656 3.91153 32.1723 4.88941 32.6612L11.0501 36.2794C11.539 36.3772 14.6682 35.5949 14.9616 35.3993C14.8638 34.2258 12.7125 34.0302 11.3434 30.3143C10.6589 28.5541 10.5611 24.6426 10.9523 22.4912C11.4412 20.1443 12.7125 18.2864 14.2771 17.0151C16.4284 15.2549 18.0908 15.0593 20.6333 14.8638C22.8824 15.0593 24.1537 15.6461 25.6205 16.624C26.2072 17.0151 26.9895 17.7974 27.4785 18.2864C27.8696 18.7753 28.4563 19.9488 28.8475 20.2421C29.0431 20.9266 29.3364 21.5134 29.532 22.2957C30.021 24.2514 30.021 27.4784 29.6298 29.2386C29.3364 30.5099 28.6519 31.8789 27.9674 32.759C26.2072 35.1059 25.8161 34.2258 25.7183 35.3993C26.1094 35.5949 30.6077 36.7683 31.0966 36.7683C30.6077 37.1595 29.8254 37.2573 29.2387 37.6484C28.4563 38.0396 28.163 38.4307 27.5763 38.8219C26.9895 38.6263 23.5669 37.7462 22.9802 37.7462V33.2479C24.5448 32.4656 25.5227 31.5855 26.4028 29.9231C28.0652 26.5006 27.3807 17.6996 20.3399 17.6996C16.4284 17.6996 13.6903 20.7311 13.5926 24.2514C13.5926 28.9453 13.6903 31.1944 17.6997 33.2479V37.5506C17.0151 37.844 15.5483 38.2351 14.766 38.3329L21.6112 42.44V45.4715C22.1001 45.2759 25.2293 44.5914 25.7183 44.4936C29.0431 43.9068 30.9988 43.0268 34.617 43.4179C37.1595 43.7113 40.2887 44.8847 42.6356 45.667C44.0047 46.0582 45.2759 46.156 46.7427 46.5471C48.014 46.9383 49.383 47.3294 50.6543 47.7206C51.5343 47.9162 53.979 48.7963 54.7614 48.7963C55.4459 48.6985 57.8906 47.4272 58.1839 47.0361L65.5181 43.2223C66.4959 42.7334 72.0699 39.702 72.8522 39.5064V39.213C72.0699 39.213 66.7893 37.844 66.3004 37.5506V33.2479C70.0163 31.2922 70.7008 28.7497 70.3097 24.1536C69.8207 16.7217 60.1397 15.5483 57.4994 21.6112C57.2061 22.2957 56.9127 23.3713 56.9127 24.2514C56.8149 28.5541 57.0105 31.1944 61.0198 33.2479V37.7462L57.4016 38.5285C57.2061 38.6263 56.6193 38.7241 56.4238 38.8219C55.837 38.4307 55.5437 38.0396 54.8591 37.6484C54.2724 37.2573 53.2945 37.1595 52.9034 36.7683C53.3923 36.7683 57.8906 35.5949 58.1839 35.3993C58.1839 34.617 58.0862 34.8125 57.1083 33.9325C53.4901 30.8032 53.3923 24.1536 55.1525 20.1443C55.6414 19.5576 55.9348 18.7753 56.4238 18.1886C57.0105 17.504 57.4016 17.2107 58.2817 16.624C59.553 15.6461 61.3132 15.0593 63.2689 14.8638C65.7136 15.0593 67.7672 15.2549 69.7229 17.2107C71.2876 18.6775 72.3632 19.9488 72.9499 22.4912C73.4389 24.8382 73.3411 28.5541 72.5588 30.4121C72.0699 31.5855 71.6787 32.2701 70.9942 33.1502C69.7229 34.8125 69.1362 34.3236 69.0384 35.3993C69.4296 35.5949 70.603 35.7904 70.9942 35.8882C71.6787 36.0838 72.2654 36.2794 72.9499 36.4749L76.6659 37.4528L78.2305 36.5727C81.7509 34.8125 79.9907 35.1059 84 35.1059V55.1525L68.7451 62.6822C68.4517 62.78 68.2561 62.9755 67.9628 63.0733L65.8114 64.149C64.7357 64.6379 60.4331 66.8871 59.7486 67.0826C59.7486 69.8207 58.0862 71.6787 55.6414 71.8743C55.4459 74.1234 53.7835 75.7858 51.5343 75.9814C51.4366 78.2305 49.6764 79.8929 47.4272 79.8929C47.4272 81.9464 46.2538 83.1199 44.6892 83.7066C44.4936 83.9022 44.2002 83.9022 44.0047 84ZM36.7683 79.8929C35.8882 79.8929 35.3015 79.2084 35.3015 78.4261C35.3015 77.546 36.2794 76.8614 36.7683 76.2747C38.4307 74.7101 37.9418 74.6123 39.5064 74.6123C40.2887 74.6123 40.4843 75.4924 40.4843 76.0791C40.4843 76.9592 37.6484 79.8929 36.7683 79.8929ZM32.6612 75.7858C31.7811 75.7858 31.1944 75.1013 31.1944 74.319C31.1944 73.6344 33.7369 70.5052 35.1059 70.5052C36.1816 70.5052 37.3551 71.7765 35.6927 73.4389C35.0082 74.1234 33.7369 75.7858 32.6612 75.7858ZM28.7497 71.6787C27.8696 71.6787 27.2829 71.3853 27.1851 70.5052C27.0873 69.6251 27.4785 69.3318 27.9674 68.8428C28.9453 67.9627 30.1187 66.3981 30.9988 66.3981C31.6834 66.3981 32.4657 67.0826 32.4657 67.7672C32.4657 68.9406 29.532 71.6787 28.7497 71.6787ZM23.078 66.3003C23.078 65.0291 26.1094 62.291 26.8917 62.291C27.674 62.291 28.3586 62.9755 28.3586 63.7578C28.3586 64.8335 25.6205 67.7672 24.447 67.6694C23.6647 67.6694 23.078 67.0826 23.078 66.3003ZM32.6612 55.2503C32.6612 53.6857 32.4657 53.6857 34.8126 52.5122C36.9639 51.5343 41.56 48.894 43.3201 48.894C46.6449 48.894 52.4144 51.5343 54.2724 51.5343C56.8149 51.5343 55.9348 51.4365 58.8685 49.9697L81.1641 38.2351V53.2945L58.3795 64.7357L51.3388 58.3795C51.0454 58.0861 50.8498 57.7928 50.5565 57.4994C48.7963 56.0326 45.7648 52.8056 43.6135 52.8056C40.7777 52.8056 39.9953 53.6857 37.4529 55.2503C36.8661 55.6414 35.3993 56.5215 34.9104 56.7171C33.9325 57.0105 32.6612 56.5215 32.6612 55.2503ZM43.1246 55.6414C44.787 55.6414 45.5693 56.9127 46.4494 57.695L55.0547 65.3224C55.5437 65.8114 56.6193 66.5937 56.8149 67.2782C57.0105 68.1583 56.4238 69.0384 55.2503 69.0384C54.2724 69.0384 49.9697 65.1269 48.8941 64.2468C48.1118 63.5623 47.525 62.78 46.7427 62.6822C46.2538 63.4645 45.6671 64.0512 45.0803 64.8335L49.0896 68.0605C51.241 69.8207 53.6857 71.0919 52.4144 72.6566C51.1432 74.2212 48.7963 71.5809 47.0361 70.1141C46.4494 69.6251 43.4179 66.8871 42.8312 66.7893C42.3423 67.0826 41.4622 68.2561 41.1688 68.745C41.56 69.3318 46.2538 73.1455 47.0361 73.7322C47.9162 74.4167 48.6985 74.9057 48.6985 75.7858C48.6985 76.8614 47.9162 77.057 47.0361 77.057C46.0582 77.057 44.1024 75.1013 43.3201 74.4167C42.2445 73.5366 41.9511 71.8743 39.4086 71.8743C38.8219 69.7229 37.844 67.7672 35.3015 67.7672C35.2037 65.518 33.3458 63.66 31.1944 63.66C31.1944 60.6286 27.0873 57.5972 23.5669 61.1176C22.8824 61.8021 21.6112 62.8777 21.1222 63.66L17.0151 61.2153L18.8731 54.7613C19.1665 53.7834 19.4598 52.7078 19.7532 51.6321C20.0466 50.752 20.6333 49.1874 20.6333 48.4051C21.6112 48.4051 25.2293 47.4272 26.5006 47.1339C29.7276 46.5471 32.2701 45.5692 35.8882 46.4493C36.7683 46.6449 37.9418 47.1339 38.9197 47.2316C37.844 48.6985 31.2922 49.9697 30.1187 53.0011C29.532 54.3702 29.6298 55.837 30.2165 57.0105C31.2922 59.2596 34.0303 60.433 36.6706 58.9662L41.2666 56.2281C41.8533 55.9348 42.3423 55.6414 43.1246 55.6414ZM13.9837 62.1932C13.2992 62.1932 11.6368 61.6065 11.1478 61.3131L15.8417 42.44C16.3306 42.5378 18.8731 44.0046 18.8731 44.298C18.8731 45.2759 15.0594 57.9883 14.5704 59.8463C14.3749 60.5308 13.9837 61.4109 13.9837 62.1932ZM8.50757 60.5308C7.82305 60.1397 6.45402 59.8463 5.57392 59.5529C4.59604 59.1618 2.83586 58.8684 2.83586 58.1839V35.3015C4.20489 35.3015 4.59604 35.7904 5.86729 36.5727C6.94296 37.1595 13.2992 40.7776 13.2992 40.9732C13.2992 41.6577 12.908 42.7334 12.7125 43.4179L10.9523 50.752C10.4633 52.4144 10.0722 54.0768 9.68103 55.6414L8.50757 60.5308Z" fill="#1664B2"/>
<path fill-rule="evenodd" clip-rule="evenodd" d="M31.0966 36.7683C30.6077 37.1595 29.8254 37.2572 29.2386 37.6484C28.4563 38.0395 28.163 38.4307 27.5763 38.8219C26.9895 39.4086 26.5006 40.2887 26.1094 41.071C25.7183 42.2444 25.7183 42.929 25.7183 44.4936C29.0431 43.9068 30.9988 43.0267 34.617 43.4179C37.1595 43.7113 40.2887 44.8847 42.6356 45.667C44.0047 46.0582 45.2759 46.156 46.7427 46.5471C48.014 46.9383 49.383 47.3294 50.6543 47.7206C51.5343 47.9161 53.979 48.7962 54.7614 48.7962C55.4459 48.6985 57.8906 47.4272 58.1839 47.0361C58.2817 45.9604 58.3795 43.2223 58.1839 42.2444C57.9884 40.9732 57.2061 39.5064 56.4237 38.8219C55.837 38.4307 55.5437 38.0395 54.8591 37.6484C54.2724 37.2572 53.2945 37.1595 52.9034 36.7683C52.2189 36.7683 47.8184 35.5948 47.4272 35.3993C47.525 34.2258 49.6764 33.9324 50.9476 30.4121C51.6321 28.2607 51.7299 24.9359 51.3388 22.6868C50.4587 18.3841 46.7427 14.9615 41.9511 14.9615C37.4529 14.9615 33.4435 17.8952 32.6612 22.589C32.2701 24.8381 32.3679 28.3585 33.0524 30.4121C34.3236 33.9324 36.475 34.2258 36.5728 35.3993C36.1816 35.5948 31.7811 36.7683 31.0966 36.7683Z" fill="#FFB703"/>
<path fill-rule="evenodd" clip-rule="evenodd" d="M20.6333 14.8638C22.8824 15.0594 24.1537 15.6461 25.6205 16.624C26.2072 17.0151 26.9895 17.7974 27.4785 18.2864C27.8696 18.7753 28.4563 19.9488 28.8475 20.2421C29.4342 18.5797 32.2701 15.6461 33.7369 14.766C39.0175 11.4412 44.787 11.4412 50.0675 14.5704C51.3388 15.3527 53.0989 17.1129 54.0768 18.482C54.468 19.0687 54.7613 19.5576 55.1525 20.1444C55.6414 19.5576 55.9348 18.7753 56.4237 18.1886C57.0105 17.5041 57.4016 17.2107 58.2817 16.624C59.553 15.6461 61.3132 15.0594 63.2689 14.8638C63.6601 13.6903 64.3446 12.7125 64.638 11.4412L57.4016 4.20489C56.4237 4.88941 55.4459 5.57392 54.468 6.25844C52.61 7.52969 53.0012 6.35623 49.383 5.28056C48.014 4.88941 48.3073 5.28056 47.6228 2.05355C47.525 1.36903 47.3295 0.684517 47.2317 0H36.7683C36.6705 0.684517 36.475 1.36903 36.3772 2.05355C35.5949 5.96508 36.1816 4.49825 32.8568 5.96508C30.1187 7.13853 31.4878 7.52969 26.5984 4.30268L19.362 11.4412C19.6554 12.7125 20.3399 13.7881 20.6333 14.8638Z" fill="#FFB703"/>
</svg>
