<?xml version="1.0" encoding="UTF-8"?>
<!DOCTYPE svg PUBLIC "-//W3C//DTD SVG 1.0//EN" "http://www.w3.org/TR/2001/REC-SVG-20010904/DTD/svg10.dtd">
<!-- Creator: CorelDRAW X7 -->
<svg xmlns="http://www.w3.org/2000/svg" xml:space="preserve" width="2.13254in" height="2.13254in" version="1.0" style="shape-rendering:geometricPrecision; text-rendering:geometricPrecision; image-rendering:optimizeQuality; fill-rule:evenodd; clip-rule:evenodd"
viewBox="0 0 1374 1374"
 xmlns:xlink="http://www.w3.org/1999/xlink">
 <defs>
  <style type="text/css">
   <![CDATA[
    .fil0 {fill:white}
   ]]>
  </style>
 </defs>
 <g id="Layer_x0020_1">
  <metadata id="CorelCorpID_0Corel-Layer"/>
  <g id="_656364360">
   <path class="fil0" d="M640 78c175,-16 351,53 474,173 44,43 86,97 114,152 35,70 61,145 68,236 10,133 -23,261 -89,368 -36,60 -88,118 -143,161 -95,72 -200,117 -329,128 -241,21 -478,-113 -588,-325 -101,-194 -93,-417 20,-603 28,-46 36,-52 65,-87 5,-7 13,-15 19,-20 43,-45 95,-85 152,-114 72,-38 143,-60 237,-69zm-640 583l0 64c2,4 7,60 9,72 4,24 8,45 14,68 35,136 120,262 220,346 110,92 240,148 385,161 5,0 14,0 18,2l72 0c7,-2 60,-5 74,-7 148,-23 280,-93 381,-194 48,-48 101,-117 136,-193 33,-72 54,-143 62,-223 1,-9 1,-32 3,-39l0 -57c-1,-4 -2,-31 -3,-38 -3,-36 -9,-70 -17,-104 -31,-125 -95,-228 -177,-313 -105,-111 -257,-184 -411,-202 -7,0 -32,-1 -37,-4l-78 0c-4,2 -63,7 -74,9 -143,24 -279,93 -378,195 -100,103 -171,234 -192,384l-7 73z"/>
   <path class="fil0" d="M632 687c-5,8 -99,100 -109,110 -18,19 -36,36 -54,55 -8,7 -21,18 -26,29 -13,31 17,64 50,51 13,-6 72,-68 84,-80l82 -82c6,-7 22,-24 28,-28 8,6 20,19 28,27l137 137c7,7 18,20 29,25 31,14 64,-18 51,-49 -6,-13 -68,-73 -80,-84 -19,-19 -37,-37 -55,-55 -9,-9 -51,-50 -55,-56 4,-5 102,-102 109,-109 12,-12 75,-72 80,-84 14,-32 -19,-64 -49,-51 -14,6 -72,67 -84,80 -8,7 -105,106 -111,109 -7,-4 -21,-20 -27,-27 -10,-9 -18,-17 -28,-27 -18,-18 -36,-36 -55,-55 -18,-18 -35,-36 -54,-54 -7,-7 -19,-21 -29,-26 -17,-7 -34,-1 -43,8 -9,9 -15,26 -8,42 6,13 67,71 80,84 8,8 105,103 109,110z"/>
  </g>
 </g>
</svg>
